<?xml version="1.0"?>
<!DOCTYPE svg PUBLIC "-//W3C//DTD SVG 1.1//EN"
        "http://www.w3.org/Graphics/SVG/1.1/DTD/svg11.dtd">

<svg version="1.1" xmlns="http://www.w3.org/2000/svg"
     xmlns:xlink="http://www.w3.org/1999/xlink"
     width="600px" height="600px"
     viewBox="0 0 3 3"
     preserveAspectRatio="xMidYMid">
    <rect x="0" y="0" width="3" height="3" stroke="black" stroke-width="0.005" fill="none"/>
    <!--Definitions-->
    <defs>

        <!--Polygon-->
        <g id="polygon" fill="orange">
            <polygon
                    points="56 170,143 172,188 107,140 38,57 38,11 108">
                <animateTransform attributeName="transform"
                                  type="rotate"
                                  from="0 100 100"
                                  to="360 100 100"
                                  dur="7s"
                                  repeatCount="indefinite"/>
            </polygon>
        </g>

        <!--Triangle-->
        <g id="triangle">
            <polygon points="1.4,2 1.5,1.3 1.6,2"/>
        </g>

        <!--Rectangle-->
        <g id="rectangle" fill="red">
            <polygon points="1,1.4 2.1,1.4 2.1,1.5 1,1.5"/>
        </g>

    </defs>

<!--Polygons-->
    <use xlink:href="#polygon" transform="scale(0.0015 0.0015) translate(30 110)"/>
    <use xlink:href="#polygon" transform="scale(0.0015 0.0015) translate(560 300)"/>
    <use xlink:href="#polygon" transform="scale(0.0013 0.0013) translate(1515 102)"/>
    <use xlink:href="#polygon" transform="scale(0.0013 0.0013) translate(1995 268)"/>
    <use xlink:href="#polygon" transform="scale(0.0017 0.0017) translate(520 575)"/>
    <use xlink:href="#polygon" transform="scale(0.0017 0.0017) translate(1030 760)"/>

<!--Rectangles-->
    <use xlink:href="#rectangle" transform="rotate(20 0 0) translate(0.45 -0.75) scale(0.9 1) "/>
    <use xlink:href="#rectangle" transform="rotate(20 0 0) translate(-0.47 -0.87) scale(0.75 0.75) "/>
    <use xlink:href="#rectangle" transform="rotate(20 0 0) translate(1.6 -1.2) scale(0.5 0.5) "/>

<!--Triangles-->
    <use xlink:href="#triangle" transform="scale(1,1) translate(0 0)" fill="blue"/>
    <use xlink:href="#triangle" transform="scale(0.75,0.75) translate(-0.75 -0.72)" fill="purple"/>
    <use xlink:href="#triangle" transform="scale(0.5,0.5) translate(3.3 -0.6)" fill="green"/>

</svg>